G04 #@! TF.GenerationSoftware,KiCad,Pcbnew,(5.1.0-69-gb00413b7d)*
G04 #@! TF.CreationDate,2019-05-24T00:33:05+02:00*
G04 #@! TF.ProjectId,AVR-ISP_pogo-plug_1.27mm,4156522d-4953-4505-9f70-6f676f2d706c,0.21.e*
G04 #@! TF.SameCoordinates,Original*
G04 #@! TF.FileFunction,Copper,L1,Top*
G04 #@! TF.FilePolarity,Positive*
%FSLAX46Y46*%
G04 Gerber Fmt 4.6, Leading zero omitted, Abs format (unit mm)*
G04 Created by KiCad (PCBNEW (5.1.0-69-gb00413b7d)) date 2019-05-24 00:33:05*
%MOMM*%
%LPD*%
G04 APERTURE LIST*
%ADD10R,0.400000X2.000000*%
%ADD11R,0.400000X3.000000*%
%ADD12R,0.950000X1.000000*%
%ADD13R,1.500000X2.000000*%
%ADD14O,1.500000X2.000000*%
%ADD15C,0.304800*%
%ADD16C,0.203200*%
G04 APERTURE END LIST*
D10*
X66950000Y-64250000D03*
X68220000Y-64250000D03*
X68780000Y-64250000D03*
X67510000Y-64250000D03*
X69490000Y-64250000D03*
X70050000Y-64250000D03*
D11*
X69490000Y-71500000D03*
X70050000Y-71500000D03*
D12*
X69770000Y-72495800D03*
D11*
X68220000Y-71500000D03*
X68780000Y-71500000D03*
D12*
X68500000Y-72495800D03*
D11*
X67510000Y-71500000D03*
X66950000Y-71500000D03*
D12*
X67230000Y-72495800D03*
D13*
X71040000Y-76730000D03*
D14*
X71040000Y-79270000D03*
X68500000Y-76730000D03*
X68500000Y-79270000D03*
X65960000Y-76730000D03*
X65960000Y-79270000D03*
D15*
X69490000Y-71500000D02*
X69490000Y-72215800D01*
X69490000Y-72215800D02*
X69770000Y-72495800D01*
X70050000Y-71500000D02*
X70050000Y-72215800D01*
X70050000Y-72215800D02*
X69770000Y-72495800D01*
D16*
X69750000Y-72515800D02*
X69770000Y-72495800D01*
D15*
X69750000Y-73500000D02*
X69750000Y-72515800D01*
X71040000Y-74790000D02*
X69750000Y-73500000D01*
X71040000Y-76730000D02*
X71040000Y-74790000D01*
X66950000Y-71500000D02*
X66950000Y-72215800D01*
X66950000Y-72215800D02*
X67230000Y-72495800D01*
X67510000Y-71500000D02*
X67510000Y-72215800D01*
X67510000Y-72215800D02*
X67230000Y-72495800D01*
X65960000Y-76730000D02*
X65960000Y-74790000D01*
X65960000Y-74790000D02*
X67250000Y-73500000D01*
D16*
X67250000Y-72515800D02*
X67230000Y-72495800D01*
D15*
X67250000Y-73500000D02*
X67250000Y-72515800D01*
X68220000Y-71500000D02*
X68220000Y-72215800D01*
X68220000Y-72215800D02*
X68500000Y-72495800D01*
X68780000Y-71500000D02*
X68780000Y-72215800D01*
X68780000Y-72215800D02*
X68500000Y-72495800D01*
X68500000Y-72495800D02*
X68500000Y-76730000D01*
M02*
